<svg width="650" height="189" viewBox="0 0 650 189" fill="none" xmlns="http://www.w3.org/2000/svg">
<path d="M152.941 0V37.7419V75.4839L152.941 113.226V150.968H114.706L114.706 113.226V75.4839L114.706 37.7419L76.4705 37.7419L76.4705 75.4839V113.226L76.4705 150.968H38.2353V113.226L38.2353 75.4839L38.2353 37.7419L38.2353 0L0 0L0 37.7419L0 75.4839L0 113.226L0 150.968L0 188.71H38.2353H76.4705L114.706 188.71H152.941H191.176V150.968V113.226L191.176 75.4839V37.7419V0L152.941 0Z" fill="black"/>
<path d="M420.588 150.968H382.353H344.117L305.882 150.968H267.647V113.226L305.882 113.226H344.117L382.353 113.226V75.4839L344.117 75.4839H305.882L267.647 75.4839V37.7419L305.882 37.7419L344.117 37.7419H382.353L420.588 37.7419V0L382.353 0L344.117 0L305.882 0L267.647 0L229.412 0V37.7419V75.4839L229.412 113.226V150.968V188.71H267.647H305.882L344.117 188.71H382.353H420.588V150.968Z" fill="black"/>
<path d="M458.823 37.7419L497.058 37.7419L535.293 37.7419L573.529 37.7419H611.764V75.4839L573.529 75.4839H535.293L497.058 75.4839V113.226L535.293 113.226H573.529L611.764 113.226V150.968H573.529L535.293 150.968H497.058H458.823L458.823 188.71H497.058H535.293L573.529 188.71H611.764H649.999V150.968V113.226V75.4839V37.7419V0L611.764 0L573.529 0L535.293 0L497.058 0L458.823 0V37.7419Z" fill="black"/>
</svg>
